/vscmnt/brussel_pixiu_data/_data_brussel/112/vsc11236/PredSimResults/SUBJ11opt3D/weighted-expIG/worker_02.mot
version=1
nRows=10
nColumns=50
inDegrees=yes
endheader
                time	         pelvis_tilt	         pelvis_list	     pelvis_rotation	           pelvis_tx	           pelvis_ty	           pelvis_tz	       hip_flexion_r	     hip_adduction_r	      hip_rotation_r	        knee_angle_r	       ankle_angle_r	         mtp_angle_r	       hip_flexion_l	     hip_adduction_l	      hip_rotation_l	        knee_angle_l	       ankle_angle_l	         mtp_angle_l	    lumbar_extension	      lumbar_bending	     lumbar_rotation	 ercspn_r/activation	 intobl_r/activation	 extobl_r/activation	    abd_r/activation	    add_r/activation	hamstrings_r/activation	bifemsh_r/activation	glut_max_r/activation	iliopsoas_r/activation	rect_fem_r/activation	  vasti_r/activation	gastroc_r/activation	 soleus_r/activation	tib_ant_r/activation	 ercspn_l/activation	 intobl_l/activation	 extobl_l/activation	    abd_l/activation	    add_l/activation	hamstrings_l/activation	bifemsh_l/activation	glut_max_l/activation	iliopsoas_l/activation	rect_fem_l/activation	  vasti_l/activation	gastroc_l/activation	 soleus_l/activation	tib_ant_l/activation	
          1.39876444	         -2.74604581	         -1.20047842	          5.99070319	          1.45471502	          0.94246355	         -0.00520486	         30.94879260	         -1.69845594	         -4.00483774	         -9.73251500	          1.72426477	          0.22387999	        -13.54376122	         -3.17821447	         -1.59421348	        -11.80921570	         13.03011558	         28.53577312	        -14.39607060	         -2.47131546	         -3.25432884	          0.02789443	          0.26030146	          0.06991790	          0.01000069	          0.18953253	          0.04264908	          0.12929820	          0.03428919	          0.10531911	          0.04450821	          0.01785108	          0.01000039	          0.01000007	          0.40454413	          0.01000099	          0.01000060	          0.01000081	          0.04234361	          0.01000174	          0.01729431	          0.27633415	          0.02850964	          0.16205839	          0.01000294	          0.01000076	          0.16206284	          0.32729485	          0.01476741	
          1.41275208	         -2.89135162	         -1.25519708	          6.08796998	          1.47319004	          0.94019035	         -0.00390243	         30.75717422	         -1.50245079	         -4.22415453	        -10.80798313	          1.19083086	          0.23343332	        -14.08420326	         -3.43665844	         -1.95521880	        -12.54675786	         12.30164225	         30.34055359	        -13.94433285	         -1.95995604	         -3.46556117	          0.02262206	          0.21109096	          0.05669970	          0.01000030	          0.21147242	          0.03868198	          0.10485561	          0.09604620	          0.08540818	          0.03609427	          0.01447645	          0.01249041	          0.01287700	          0.42581457	          0.01542605	          0.01000124	          0.01000161	          0.03433844	          0.04638857	          0.02627551	          0.22412486	          0.02312031	          0.17508154	          0.01000401	          0.01000129	          0.13342828	          0.30837697	          0.01197570	
          1.42673973	         -3.01338217	         -1.32307768	          6.16610922	          1.49213151	          0.93818977	         -0.00254538	         30.46493224	         -1.32556268	         -4.35877390	        -12.03089241	          0.70282658	          0.20987291	        -14.49696536	         -3.72168880	         -2.32394433	        -13.57746190	         11.42407306	         32.23104554	        -13.45273173	         -1.42426107	         -3.67508222	          0.01835126	          0.17118372	          0.04598045	          0.05514869	          0.20941090	          0.04649597	          0.08503371	          0.11616827	          0.06926149	          0.02927095	          0.01173990	          0.01012933	          0.01044263	          0.49466443	          0.01251140	          0.01000037	          0.01000167	          0.02784668	          0.03761951	          0.02131009	          0.18176037	          0.01874954	          0.15876357	          0.01000255	          0.01000071	          0.10820332	          0.28352256	          0.01000031	
          1.44072737	         -3.11522947	         -1.38336124	          6.21391863	          1.51118434	          0.93668918	         -0.00110077	         30.18063202	         -1.16815899	         -4.57213707	        -13.25912598	         -0.01481752	          0.18297085	        -14.68119228	         -4.01202338	         -2.70281132	        -15.02228768	         10.34750864	         34.21546782	        -12.96438546	         -0.89445627	         -3.87226081	          0.02700362	          0.13882094	          0.03728771	          0.09091056	          0.24921075	          0.04653323	          0.06895876	          0.11427933	          0.05616739	          0.02373759	          0.03535906	          0.01000058	          0.01000021	          0.55487451	          0.04011372	          0.01000049	          0.01000096	          0.02258220	          0.03312175	          0.02792112	          0.14740102	          0.01520511	          0.12876333	          0.01000199	          0.01000069	          0.08774714	          0.25518797	          0.01000031	
          1.45471502	         -3.19651279	         -1.43564396	          6.23342652	          1.53013911	          0.93581731	          0.00042208	         29.97806183	         -1.03087658	         -4.84252816	        -14.67061549	         -0.58963936	          0.13529007	        -14.56688630	         -4.31068991	         -3.08755741	        -16.97135546	          9.05368847	         36.24473355	        -12.50031710	         -0.37315409	         -4.05396652	          0.02957685	          0.11257643	          0.03023837	          0.11859514	          0.28147309	          0.05295020	          0.05592302	          0.11384364	          0.04554877	          0.01925032	          0.11373994	          0.01000082	          0.01000033	          0.58923122	          0.06536911	          0.01000053	          0.01000078	          0.01831298	          0.09810500	          0.02950244	          0.11953842	          0.01233074	          0.10442667	          0.01000131	          0.01000036	          0.07115826	          0.21274581	          0.01000026	
          1.46870266	         -3.25930003	         -1.47758370	          6.22334378	          1.54882593	          0.93572143	          0.00199409	         29.78860883	         -0.90137037	         -5.11397207	        -16.16999069	         -0.79581352	          0.07962242	        -14.08341580	         -4.61623841	         -3.48088339	        -19.51397006	          7.53503367	         38.17159696	        -12.07444071	          0.13699071	         -4.21483968	          0.02398752	          0.09129353	          0.02452174	          0.13476113	          0.30420251	          0.05506733	          0.04535196	          0.13142074	          0.03693764	          0.01561139	          0.15943896	          0.01000075	          0.01000024	          0.57765605	          0.09008656	          0.01000060	          0.01000098	          0.01485088	          0.16066771	          0.04116457	          0.09694543	          0.01000033	          0.08468622	          0.01000086	          0.01000021	          0.05770556	          0.17252546	          0.01000023	
          1.48269031	         -3.30573422	         -1.50777864	          6.18126486	          1.56706222	          0.93649095	          0.00357654	         29.55272103	         -0.76722023	         -5.33627266	        -17.65850340	         -0.51618194	          0.04296816	        -13.17483322	         -4.92915873	         -3.89305888	        -22.70898206	          5.81269585	         39.73182627	        -11.70237460	          0.63678070	         -4.34870005	          0.01945350	          0.07403424	          0.01988587	          0.14555784	          0.31751396	          0.05919077	          0.03678032	          0.12759064	          0.02995448	          0.01266046	          0.19333949	          0.01000062	          0.01000021	          0.51108885	          0.10303991	          0.01000108	          0.01000100	          0.01204331	          0.20621784	          0.05474565	          0.08490802	          0.01000021	          0.06867682	          0.01000047	          0.01000011	          0.04679614	          0.13990889	          0.01000055	
          1.49667795	         -3.33740440	         -1.51413983	          6.10582273	          1.58474485	          0.93811282	          0.00512485	         29.19450564	         -0.62587072	         -5.46372584	        -18.97645181	          0.17430442	          0.09232706	        -11.82361132	         -5.24618903	         -4.35962571	        -26.58680213	          4.10014395	         40.27080559	        -11.39188521	          1.11638911	         -4.45241378	          0.01577628	          0.06003789	          0.01612644	          0.14665437	          0.30725188	          0.06147955	          0.02982984	          0.12065809	          0.02429151	          0.01026766	          0.24045275	          0.01000137	          0.01000036	          0.42017833	          0.10051275	          0.01000161	          0.01000268	          0.01000011	          0.25678961	          0.05949874	          0.06886552	          0.01000017	          0.05569376	          0.01000042	          0.01000009	          0.03794919	          0.11345860	          0.01000028	
          1.51066559	         -3.35656309	         -1.47673350	          5.98930914	          1.60183411	          0.94057221	          0.00659516	         28.61125209	         -0.48650248	         -5.48657581	        -19.89961450	          1.04814765	          0.28782184	        -10.05292732	         -5.55772649	         -4.87764276	        -31.06266587	          2.31341056	         39.68160637	        -11.14646384	          1.55814925	         -4.51892269	          0.01279429	          0.04868762	          0.01307779	          0.13524211	          0.28646218	          0.06616408	          0.02419409	          0.09784908	          0.01969915	          0.01000144	          0.26479044	          0.01000088	          0.01000020	          0.34366830	          0.08220970	          0.01000172	          0.03034377	          0.01000013	          0.29607435	          0.05141787	          0.06318806	          0.01000015	          0.04516515	          0.01000034	          0.01000007	          0.03077480	          0.09200883	          0.01000032	
          1.52465324	         -3.36519335	         -1.37494873	          5.82282224	          1.61831394	          0.94376974	          0.00797018	         27.76624678	         -0.37041773	         -5.41488665	        -20.31752055	          1.85092191	          0.58036557	         -7.93188915	         -5.84828527	         -5.42007215	        -35.91921310	          0.24412793	         38.15561271	        -10.97123562	          1.94063797	         -4.54657977	          0.01037652	          0.03948315	          0.01060565	          0.11388582	          0.26509882	          0.06726212	          0.01962151	          0.07935132	          0.01597500	          0.01000143	          0.26630230	          0.01000076	          0.01000018	          0.29007981	          0.06681246	          0.01083231	          0.06052078	          0.01000012	          0.31160831	          0.04169742	          0.07069671	          0.01000019	          0.03662710	          0.01000030	          0.01000005	          0.02495676	          0.07461423	          0.01000067	
